<svg xmlns="http://www.w3.org/2000/svg" xmlns:xlink="http://www.w3.org/1999/xlink" viewBox="0 0 312 312"><defs><rect id="a" width="312" height="312" rx="70"/><linearGradient id="b" x1="90.374%" x2="78.604%" y1="68.198%" y2="68.198%"><stop offset="0%" stop-color="#5EC1F9"/><stop offset="100%" stop-color="#5EB8F9"/></linearGradient></defs><g fill="none" fill-rule="evenodd"><use fill="#FFE411" xlink:href="#a"/><path fill="url(#b)" d="M7.711 162.471a4.06 4.06 0 0 1-.421.074l13.419 13.088c12.9-1.187 25.532-4.58 34.83-7.944 9.3-3.363 16.957-7.696 22.971-12.999 6.015-5.302 10.467-11.673 13.355-19.112 2.889-7.44 4.333-16.026 4.333-25.76V61.74c0-10.843.04-20.24.119-28.194.079-7.954.119-15.136.119-21.546l-15-11.973c0 6.403-.04 13.576-.12 21.519-.078 7.954-.118 17.351-.118 28.194v48.078c0 9.734-1.444 18.32-4.333 25.76-2.888 7.44-7.34 13.81-13.355 19.112-6.014 5.303-13.671 9.636-22.97 13-9.186 3.322-20.13 5.582-32.829 6.781z" transform="translate(101 73)"/><path fill="#FFF" d="M182.436 73c0 6.41-.04 13.592-.12 21.546-.078 7.954-.118 17.351-.118 28.194v48.078c0 9.734-1.444 18.32-4.333 25.76-2.888 7.44-7.34 13.81-13.355 19.112-6.014 5.303-13.671 9.636-22.97 13-9.3 3.363-20.399 5.638-33.299 6.825L101 204.413c6.648-.792 12.465-1.84 17.45-3.146 4.986-1.306 9.339-3.383 13.059-6.232 3.957-3.087 6.944-6.965 8.962-11.634 2.018-4.67 3.027-10.842 3.027-18.519 0-6.173.02-12.682.06-19.528.04-6.845.06-13.909.06-21.19 0-12.662-.06-22.733-.179-30.212A5720.1 5720.1 0 0 1 143.142 73h39.294z"/></g></svg>